<svg version="1.1" xmlns="http://www.w3.org/2000/svg" viewBox="0 0 477.21222679763287 276.22359040005176" width="477.21222679763287" height="276.22359040005176">
  <!-- svg-source:excalidraw -->
  
  <defs>
    <style class="style-fonts">
      @font-face {
        font-family: "Virgil";
        src: url("https://excalidraw.com/Virgil.woff2");
      }
      @font-face {
        font-family: "Cascadia";
        src: url("https://excalidraw.com/Cascadia.woff2");
      }
      @font-face {
        font-family: "Assistant";
        src: url("https://excalidraw.com/Assistant-Regular.woff2");
      }
    </style>
    
  </defs>
  <rect x="0" y="0" width="477.21222679763287" height="276.22359040005176" fill="#ffffff"></rect><g stroke-linecap="round" transform="translate(10.000000000000455 238.80566867581956) rotate(0 13.7089608621161 13.7089608621161)"><path d="M6.85 0 C10.45 0, 14.05 0, 20.56 0 C25.13 0, 27.42 2.28, 27.42 6.85 C27.42 11.94, 27.42 17.03, 27.42 20.56 C27.42 25.13, 25.13 27.42, 20.56 27.42 C16.47 27.42, 12.38 27.42, 6.85 27.42 C2.28 27.42, 0 25.13, 0 20.56 C0 15.44, 0 10.31, 0 6.85 C0 2.28, 2.28 0, 6.85 0" stroke="none" stroke-width="0" fill="#e9ecef"></path><path d="M6.85 0 C11.34 0, 15.82 0, 20.56 0 M20.56 0 C25.13 0, 27.42 2.28, 27.42 6.85 M27.42 6.85 C27.42 10.91, 27.42 14.97, 27.42 20.56 M27.42 20.56 C27.42 25.13, 25.13 27.42, 20.56 27.42 M20.56 27.42 C15.93 27.42, 11.29 27.42, 6.85 27.42 M6.85 27.42 C2.28 27.42, 0 25.13, 0 20.56 M0 20.56 C0 16.29, 0 12.01, 0 6.85 M0 6.85 C0 2.28, 2.28 0, 6.85 0" stroke="#e03131" stroke-width="1.5" fill="none" stroke-dasharray="8 9"></path></g><g stroke-linecap="round" transform="translate(46.82851571604124 238.80566867581956) rotate(0 13.7089608621161 13.7089608621161)"><path d="M6.85 0 C10.29 0, 13.72 0, 20.56 0 C25.13 0, 27.42 2.28, 27.42 6.85 C27.42 10.13, 27.42 13.41, 27.42 20.56 C27.42 25.13, 25.13 27.42, 20.56 27.42 C15.42 27.42, 10.27 27.42, 6.85 27.42 C2.28 27.42, 0 25.13, 0 20.56 C0 16.72, 0 12.87, 0 6.85 C0 2.28, 2.28 0, 6.85 0" stroke="none" stroke-width="0" fill="#e9ecef"></path><path d="M6.85 0 C11.97 0, 17.09 0, 20.56 0 M20.56 0 C25.13 0, 27.42 2.28, 27.42 6.85 M27.42 6.85 C27.42 11.4, 27.42 15.95, 27.42 20.56 M27.42 20.56 C27.42 25.13, 25.13 27.42, 20.56 27.42 M20.56 27.42 C16.19 27.42, 11.82 27.42, 6.85 27.42 M6.85 27.42 C2.28 27.42, 0 25.13, 0 20.56 M0 20.56 C0 17.09, 0 13.62, 0 6.85 M0 6.85 C0 2.28, 2.28 0, 6.85 0" stroke="#e03131" stroke-width="1.5" fill="none" stroke-dasharray="8 9"></path></g><g stroke-linecap="round" transform="translate(83.65703143208202 238.8056686758191) rotate(0 13.7089608621161 13.7089608621161)"><path d="M6.85 0 C11.64 0, 16.43 0, 20.56 0 C25.13 0, 27.42 2.28, 27.42 6.85 C27.42 10.31, 27.42 13.77, 27.42 20.56 C27.42 25.13, 25.13 27.42, 20.56 27.42 C17.41 27.42, 14.26 27.42, 6.85 27.42 C2.28 27.42, 0 25.13, 0 20.56 C0 15.98, 0 11.39, 0 6.85 C0 2.28, 2.28 0, 6.85 0" stroke="none" stroke-width="0" fill="#e9ecef"></path><path d="M6.85 0 C12.05 0, 17.24 0, 20.56 0 M20.56 0 C25.13 0, 27.42 2.28, 27.42 6.85 M27.42 6.85 C27.42 10.44, 27.42 14.03, 27.42 20.56 M27.42 20.56 C27.42 25.13, 25.13 27.42, 20.56 27.42 M20.56 27.42 C16.34 27.42, 12.11 27.42, 6.85 27.42 M6.85 27.42 C2.28 27.42, 0 25.13, 0 20.56 M0 20.56 C0 16.92, 0 13.27, 0 6.85 M0 6.85 C0 2.28, 2.28 0, 6.85 0" stroke="#e03131" stroke-width="1.5" fill="none" stroke-dasharray="8 9"></path></g><g stroke-linecap="round" transform="translate(120.4855471481228 238.80566867581956) rotate(0 13.7089608621161 13.7089608621161)"><path d="M6.85 0 C10.26 0, 13.66 0, 20.56 0 C25.13 0, 27.42 2.28, 27.42 6.85 C27.42 12.19, 27.42 17.52, 27.42 20.56 C27.42 25.13, 25.13 27.42, 20.56 27.42 C15.23 27.42, 9.9 27.42, 6.85 27.42 C2.28 27.42, 0 25.13, 0 20.56 C0 15.14, 0 9.72, 0 6.85 C0 2.28, 2.28 0, 6.85 0" stroke="none" stroke-width="0" fill="#e9ecef"></path><path d="M6.85 0 C10.27 0, 13.68 0, 20.56 0 M20.56 0 C25.13 0, 27.42 2.28, 27.42 6.85 M27.42 6.85 C27.42 11.01, 27.42 15.17, 27.42 20.56 M27.42 20.56 C27.42 25.13, 25.13 27.42, 20.56 27.42 M20.56 27.42 C17.7 27.42, 14.83 27.42, 6.85 27.42 M6.85 27.42 C2.28 27.42, 0 25.13, 0 20.56 M0 20.56 C0 16.37, 0 12.18, 0 6.85 M0 6.85 C0 2.28, 2.28 0, 6.85 0" stroke="#e03131" stroke-width="1.5" fill="none" stroke-dasharray="8 9"></path></g><g stroke-linecap="round" transform="translate(157.3140628641636 238.8056686758191) rotate(0 13.7089608621161 13.7089608621161)"><path d="M6.85 0 C11.41 0, 15.97 0, 20.56 0 C25.13 0, 27.42 2.28, 27.42 6.85 C27.42 9.83, 27.42 12.8, 27.42 20.56 C27.42 25.13, 25.13 27.42, 20.56 27.42 C17.66 27.42, 14.76 27.42, 6.85 27.42 C2.28 27.42, 0 25.13, 0 20.56 C0 16.28, 0 11.99, 0 6.85 C0 2.28, 2.28 0, 6.85 0" stroke="none" stroke-width="0" fill="#e9ecef"></path><path d="M6.85 0 C11.63 0, 16.4 0, 20.56 0 M20.56 0 C25.13 0, 27.42 2.28, 27.42 6.85 M27.42 6.85 C27.42 10.98, 27.42 15.11, 27.42 20.56 M27.42 20.56 C27.42 25.13, 25.13 27.42, 20.56 27.42 M20.56 27.42 C16.6 27.42, 12.63 27.42, 6.85 27.42 M6.85 27.42 C2.28 27.42, 0 25.13, 0 20.56 M0 20.56 C0 15.58, 0 10.59, 0 6.85 M0 6.85 C0 2.28, 2.28 0, 6.85 0" stroke="#e03131" stroke-width="1.5" fill="none" stroke-dasharray="8 9"></path></g><g stroke-linecap="round" transform="translate(194.14257858020437 238.8056686758191) rotate(0 13.7089608621161 13.7089608621161)"><path d="M6.85 0 C11.31 0, 15.77 0, 20.56 0 C25.13 0, 27.42 2.28, 27.42 6.85 C27.42 12.07, 27.42 17.29, 27.42 20.56 C27.42 25.13, 25.13 27.42, 20.56 27.42 C17.52 27.42, 14.47 27.42, 6.85 27.42 C2.28 27.42, 0 25.13, 0 20.56 C0 16.08, 0 11.59, 0 6.85 C0 2.28, 2.28 0, 6.85 0" stroke="none" stroke-width="0" fill="#e9ecef"></path><path d="M6.85 0 C11.89 0, 16.92 0, 20.56 0 M20.56 0 C25.13 0, 27.42 2.28, 27.42 6.85 M27.42 6.85 C27.42 10.14, 27.42 13.42, 27.42 20.56 M27.42 20.56 C27.42 25.13, 25.13 27.42, 20.56 27.42 M20.56 27.42 C16.06 27.42, 11.56 27.42, 6.85 27.42 M6.85 27.42 C2.28 27.42, 0 25.13, 0 20.56 M0 20.56 C0 16, 0 11.44, 0 6.85 M0 6.85 C0 2.28, 2.28 0, 6.85 0" stroke="#e03131" stroke-width="1.5" fill="none" stroke-dasharray="8 9"></path></g><g stroke-linecap="round" transform="translate(230.97109429624516 238.8056686758191) rotate(0 13.7089608621161 13.7089608621161)"><path d="M6.85 0 C11.36 0, 15.86 0, 20.56 0 C25.13 0, 27.42 2.28, 27.42 6.85 C27.42 11.5, 27.42 16.14, 27.42 20.56 C27.42 25.13, 25.13 27.42, 20.56 27.42 C16.56 27.42, 12.55 27.42, 6.85 27.42 C2.28 27.42, 0 25.13, 0 20.56 C0 17.49, 0 14.41, 0 6.85 C0 2.28, 2.28 0, 6.85 0" stroke="none" stroke-width="0" fill="#e9ecef"></path><path d="M6.85 0 C10.09 0, 13.33 0, 20.56 0 M20.56 0 C25.13 0, 27.42 2.28, 27.42 6.85 M27.42 6.85 C27.42 10.33, 27.42 13.81, 27.42 20.56 M27.42 20.56 C27.42 25.13, 25.13 27.42, 20.56 27.42 M20.56 27.42 C16.26 27.42, 11.95 27.42, 6.85 27.42 M6.85 27.42 C2.28 27.42, 0 25.13, 0 20.56 M0 20.56 C0 15.25, 0 9.94, 0 6.85 M0 6.85 C0 2.28, 2.28 0, 6.85 0" stroke="#e03131" stroke-width="1.5" fill="none" stroke-dasharray="8 9"></path></g><g stroke-linecap="round" transform="translate(267.79961001228594 238.8056686758191) rotate(0 13.7089608621161 13.7089608621161)"><path d="M6.85 0 C11.34 0, 15.83 0, 20.56 0 C25.13 0, 27.42 2.28, 27.42 6.85 C27.42 11.73, 27.42 16.61, 27.42 20.56 C27.42 25.13, 25.13 27.42, 20.56 27.42 C15.82 27.42, 11.07 27.42, 6.85 27.42 C2.28 27.42, 0 25.13, 0 20.56 C0 16.08, 0 11.59, 0 6.85 C0 2.28, 2.28 0, 6.85 0" stroke="none" stroke-width="0" fill="#e9ecef"></path><path d="M6.85 0 C10.05 0, 13.25 0, 20.56 0 M20.56 0 C25.13 0, 27.42 2.28, 27.42 6.85 M27.42 6.85 C27.42 9.91, 27.42 12.96, 27.42 20.56 M27.42 20.56 C27.42 25.13, 25.13 27.42, 20.56 27.42 M20.56 27.42 C15.76 27.42, 10.95 27.42, 6.85 27.42 M6.85 27.42 C2.28 27.42, 0 25.13, 0 20.56 M0 20.56 C0 15.39, 0 10.21, 0 6.85 M0 6.85 C0 2.28, 2.28 0, 6.85 0" stroke="#e03131" stroke-width="1.5" fill="none" stroke-dasharray="8 9"></path></g><g stroke-linecap="round" transform="translate(304.6281257283267 238.8056686758191) rotate(0 13.7089608621161 13.7089608621161)"><path d="M6.85 0 C10.95 0, 15.05 0, 20.56 0 C25.13 0, 27.42 2.28, 27.42 6.85 C27.42 10.91, 27.42 14.96, 27.42 20.56 C27.42 25.13, 25.13 27.42, 20.56 27.42 C16.9 27.42, 13.23 27.42, 6.85 27.42 C2.28 27.42, 0 25.13, 0 20.56 C0 16.59, 0 12.62, 0 6.85 C0 2.28, 2.28 0, 6.85 0" stroke="none" stroke-width="0" fill="#e9ecef"></path><path d="M6.85 0 C10.81 0, 14.77 0, 20.56 0 M20.56 0 C25.13 0, 27.42 2.28, 27.42 6.85 M27.42 6.85 C27.42 11.83, 27.42 16.81, 27.42 20.56 M27.42 20.56 C27.42 25.13, 25.13 27.42, 20.56 27.42 M20.56 27.42 C15.59 27.42, 10.63 27.42, 6.85 27.42 M6.85 27.42 C2.28 27.42, 0 25.13, 0 20.56 M0 20.56 C0 17.52, 0 14.48, 0 6.85 M0 6.85 C0 2.28, 2.28 0, 6.85 0" stroke="#e03131" stroke-width="1.5" fill="none" stroke-dasharray="8 9"></path></g><g stroke-linecap="round" transform="translate(10.000000000000455 163.04139654330947) rotate(0 13.7089608621161 13.7089608621161)"><path d="M6.85 0 C11.18 0, 15.51 0, 20.56 0 C25.13 0, 27.42 2.28, 27.42 6.85 C27.42 9.84, 27.42 12.83, 27.42 20.56 C27.42 25.13, 25.13 27.42, 20.56 27.42 C17.76 27.42, 14.95 27.42, 6.85 27.42 C2.28 27.42, 0 25.13, 0 20.56 C0 16.57, 0 12.58, 0 6.85 C0 2.28, 2.28 0, 6.85 0" stroke="none" stroke-width="0" fill="#e9ecef"></path><path d="M6.85 0 C10.87 0, 14.88 0, 20.56 0 M20.56 0 C25.13 0, 27.42 2.28, 27.42 6.85 M27.42 6.85 C27.42 9.91, 27.42 12.96, 27.42 20.56 M27.42 20.56 C27.42 25.13, 25.13 27.42, 20.56 27.42 M20.56 27.42 C17.77 27.42, 14.99 27.42, 6.85 27.42 M6.85 27.42 C2.28 27.42, 0 25.13, 0 20.56 M0 20.56 C0 16.42, 0 12.28, 0 6.85 M0 6.85 C0 2.28, 2.28 0, 6.85 0" stroke="#e03131" stroke-width="1.5" fill="none" stroke-dasharray="8 9"></path></g><g stroke-linecap="round" transform="translate(120.48554714812235 125.15926047705398) rotate(0 13.7089608621161 13.7089608621161)"><path d="M6.85 0 C12.04 0, 17.22 0, 20.56 0 M6.85 0 C10.07 0, 13.29 0, 20.56 0 M20.56 0 C25.13 0, 27.42 2.28, 27.42 6.85 M20.56 0 C25.13 0, 27.42 2.28, 27.42 6.85 M27.42 6.85 C27.42 10.46, 27.42 14.08, 27.42 20.56 M27.42 6.85 C27.42 11.81, 27.42 16.76, 27.42 20.56 M27.42 20.56 C27.42 25.13, 25.13 27.42, 20.56 27.42 M27.42 20.56 C27.42 25.13, 25.13 27.42, 20.56 27.42 M20.56 27.42 C15.23 27.42, 9.89 27.42, 6.85 27.42 M20.56 27.42 C15.64 27.42, 10.73 27.42, 6.85 27.42 M6.85 27.42 C2.28 27.42, 0 25.13, 0 20.56 M6.85 27.42 C2.28 27.42, 0 25.13, 0 20.56 M0 20.56 C0 16.53, 0 12.5, 0 6.85 M0 20.56 C0 17.03, 0 13.5, 0 6.85 M0 6.85 C0 2.28, 2.28 0, 6.85 0 M0 6.85 C0 2.28, 2.28 0, 6.85 0" stroke="#f08c00" stroke-width="1" fill="none"></path></g><g stroke-linecap="round" transform="translate(157.31406286416313 125.15926047705398) rotate(0 13.7089608621161 13.7089608621161)"><path d="M6.85 0 C10.63 0, 14.41 0, 20.56 0 M6.85 0 C11.92 0, 16.98 0, 20.56 0 M20.56 0 C25.13 0, 27.42 2.28, 27.42 6.85 M20.56 0 C25.13 0, 27.42 2.28, 27.42 6.85 M27.42 6.85 C27.42 10.47, 27.42 14.08, 27.42 20.56 M27.42 6.85 C27.42 11.54, 27.42 16.23, 27.42 20.56 M27.42 20.56 C27.42 25.13, 25.13 27.42, 20.56 27.42 M27.42 20.56 C27.42 25.13, 25.13 27.42, 20.56 27.42 M20.56 27.42 C15.59 27.42, 10.62 27.42, 6.85 27.42 M20.56 27.42 C15.99 27.42, 11.41 27.42, 6.85 27.42 M6.85 27.42 C2.28 27.42, 0 25.13, 0 20.56 M6.85 27.42 C2.28 27.42, 0 25.13, 0 20.56 M0 20.56 C0 16.91, 0 13.26, 0 6.85 M0 20.56 C0 17.65, 0 14.74, 0 6.85 M0 6.85 C0 2.28, 2.28 0, 6.85 0 M0 6.85 C0 2.28, 2.28 0, 6.85 0" stroke="#f08c00" stroke-width="1" fill="none"></path></g><g stroke-linecap="round" transform="translate(194.14257858020392 125.15926047705398) rotate(0 13.7089608621161 13.7089608621161)"><path d="M6.85 0 C10.3 0, 13.75 0, 20.56 0 M6.85 0 C11.72 0, 16.59 0, 20.56 0 M20.56 0 C25.13 0, 27.42 2.28, 27.42 6.85 M20.56 0 C25.13 0, 27.42 2.28, 27.42 6.85 M27.42 6.85 C27.42 11.38, 27.42 15.91, 27.42 20.56 M27.42 6.85 C27.42 12.25, 27.42 17.65, 27.42 20.56 M27.42 20.56 C27.42 25.13, 25.13 27.42, 20.56 27.42 M27.42 20.56 C27.42 25.13, 25.13 27.42, 20.56 27.42 M20.56 27.42 C16.37 27.42, 12.17 27.42, 6.85 27.42 M20.56 27.42 C16.11 27.42, 11.66 27.42, 6.85 27.42 M6.85 27.42 C2.28 27.42, 0 25.13, 0 20.56 M6.85 27.42 C2.28 27.42, 0 25.13, 0 20.56 M0 20.56 C0 16.38, 0 12.2, 0 6.85 M0 20.56 C0 15.86, 0 11.17, 0 6.85 M0 6.85 C0 2.28, 2.28 0, 6.85 0 M0 6.85 C0 2.28, 2.28 0, 6.85 0" stroke="#f08c00" stroke-width="1" fill="none"></path></g><g stroke-linecap="round" transform="translate(230.9710942962447 125.15926047705398) rotate(0 13.7089608621161 13.7089608621161)"><path d="M6.85 0 C12.17 0, 17.48 0, 20.56 0 M6.85 0 C10.8 0, 14.75 0, 20.56 0 M20.56 0 C25.13 0, 27.42 2.28, 27.42 6.85 M20.56 0 C25.13 0, 27.42 2.28, 27.42 6.85 M27.42 6.85 C27.42 11.59, 27.42 16.32, 27.42 20.56 M27.42 6.85 C27.42 12.28, 27.42 17.7, 27.42 20.56 M27.42 20.56 C27.42 25.13, 25.13 27.42, 20.56 27.42 M27.42 20.56 C27.42 25.13, 25.13 27.42, 20.56 27.42 M20.56 27.42 C15.27 27.42, 9.98 27.42, 6.85 27.42 M20.56 27.42 C17.02 27.42, 13.48 27.42, 6.85 27.42 M6.85 27.42 C2.28 27.42, 0 25.13, 0 20.56 M6.85 27.42 C2.28 27.42, 0 25.13, 0 20.56 M0 20.56 C0 17.69, 0 14.82, 0 6.85 M0 20.56 C0 17.08, 0 13.59, 0 6.85 M0 6.85 C0 2.28, 2.28 0, 6.85 0 M0 6.85 C0 2.28, 2.28 0, 6.85 0" stroke="#f08c00" stroke-width="1" fill="none"></path></g><g stroke-linecap="round" transform="translate(267.7996100122855 125.15926047705398) rotate(0 13.7089608621161 13.7089608621161)"><path d="M6.85 0 C10.12 0, 13.39 0, 20.56 0 M6.85 0 C10.98 0, 15.11 0, 20.56 0 M20.56 0 C25.13 0, 27.42 2.28, 27.42 6.85 M20.56 0 C25.13 0, 27.42 2.28, 27.42 6.85 M27.42 6.85 C27.42 11.66, 27.42 16.47, 27.42 20.56 M27.42 6.85 C27.42 9.91, 27.42 12.96, 27.42 20.56 M27.42 20.56 C27.42 25.13, 25.13 27.42, 20.56 27.42 M27.42 20.56 C27.42 25.13, 25.13 27.42, 20.56 27.42 M20.56 27.42 C17.64 27.42, 14.71 27.42, 6.85 27.42 M20.56 27.42 C15.78 27.42, 10.99 27.42, 6.85 27.42 M6.85 27.42 C2.28 27.42, 0 25.13, 0 20.56 M6.85 27.42 C2.28 27.42, 0 25.13, 0 20.56 M0 20.56 C0 16.54, 0 12.52, 0 6.85 M0 20.56 C0 16.49, 0 12.42, 0 6.85 M0 6.85 C0 2.28, 2.28 0, 6.85 0 M0 6.85 C0 2.28, 2.28 0, 6.85 0" stroke="#f08c00" stroke-width="1" fill="none"></path></g><g stroke-linecap="round" transform="translate(304.62812572832627 125.15926047705398) rotate(0 13.7089608621161 13.7089608621161)"><path d="M6.85 0 C11.21 0, 15.57 0, 20.56 0 C25.13 0, 27.42 2.28, 27.42 6.85 C27.42 10.23, 27.42 13.6, 27.42 20.56 C27.42 25.13, 25.13 27.42, 20.56 27.42 C16.96 27.42, 13.35 27.42, 6.85 27.42 C2.28 27.42, 0 25.13, 0 20.56 C0 15.1, 0 9.64, 0 6.85 C0 2.28, 2.28 0, 6.85 0" stroke="none" stroke-width="0" fill="#e9ecef"></path><path d="M6.85 0 C10.27 0, 13.68 0, 20.56 0 M20.56 0 C25.13 0, 27.42 2.28, 27.42 6.85 M27.42 6.85 C27.42 11.13, 27.42 15.41, 27.42 20.56 M27.42 20.56 C27.42 25.13, 25.13 27.42, 20.56 27.42 M20.56 27.42 C16.31 27.42, 12.06 27.42, 6.85 27.42 M6.85 27.42 C2.28 27.42, 0 25.13, 0 20.56 M0 20.56 C0 15.83, 0 11.1, 0 6.85 M0 6.85 C0 2.28, 2.28 0, 6.85 0" stroke="#e03131" stroke-width="1.5" fill="none" stroke-dasharray="8 9"></path></g><g stroke-linecap="round" transform="translate(10 87.27712441079939) rotate(0 13.7089608621161 13.7089608621161)"><path d="M6.85 0 C11.68 0, 16.5 0, 20.56 0 C25.13 0, 27.42 2.28, 27.42 6.85 C27.42 10.85, 27.42 14.85, 27.42 20.56 C27.42 25.13, 25.13 27.42, 20.56 27.42 C15.52 27.42, 10.47 27.42, 6.85 27.42 C2.28 27.42, 0 25.13, 0 20.56 C0 17.19, 0 13.81, 0 6.85 C0 2.28, 2.28 0, 6.85 0" stroke="none" stroke-width="0" fill="#e9ecef"></path><path d="M6.85 0 C10.72 0, 14.59 0, 20.56 0 M20.56 0 C25.13 0, 27.42 2.28, 27.42 6.85 M27.42 6.85 C27.42 9.89, 27.42 12.93, 27.42 20.56 M27.42 20.56 C27.42 25.13, 25.13 27.42, 20.56 27.42 M20.56 27.42 C16.73 27.42, 12.9 27.42, 6.85 27.42 M6.85 27.42 C2.28 27.42, 0 25.13, 0 20.56 M0 20.56 C0 15.16, 0 9.76, 0 6.85 M0 6.85 C0 2.28, 2.28 0, 6.85 0" stroke="#e03131" stroke-width="1.5" fill="none" stroke-dasharray="8 9"></path></g><g stroke-linecap="round" transform="translate(46.82851571604078 87.27712441079939) rotate(0 13.7089608621161 13.7089608621161)"><path d="M6.85 0 C12.05 0, 17.25 0, 20.56 0 C25.13 0, 27.42 2.28, 27.42 6.85 C27.42 10.08, 27.42 13.3, 27.42 20.56 C27.42 25.13, 25.13 27.42, 20.56 27.42 C17.59 27.42, 14.61 27.42, 6.85 27.42 C2.28 27.42, 0 25.13, 0 20.56 C0 15.35, 0 10.14, 0 6.85 C0 2.28, 2.28 0, 6.85 0" stroke="none" stroke-width="0" fill="#e9ecef"></path><path d="M6.85 0 C9.82 0, 12.78 0, 20.56 0 M6.85 0 C11.13 0, 15.41 0, 20.56 0 M20.56 0 C25.13 0, 27.42 2.28, 27.42 6.85 M20.56 0 C25.13 0, 27.42 2.28, 27.42 6.85 M27.42 6.85 C27.42 10.98, 27.42 15.1, 27.42 20.56 M27.42 6.85 C27.42 11.58, 27.42 16.31, 27.42 20.56 M27.42 20.56 C27.42 25.13, 25.13 27.42, 20.56 27.42 M27.42 20.56 C27.42 25.13, 25.13 27.42, 20.56 27.42 M20.56 27.42 C17.15 27.42, 13.73 27.42, 6.85 27.42 M20.56 27.42 C17.19 27.42, 13.82 27.42, 6.85 27.42 M6.85 27.42 C2.28 27.42, 0 25.13, 0 20.56 M6.85 27.42 C2.28 27.42, 0 25.13, 0 20.56 M0 20.56 C0 16.57, 0 12.57, 0 6.85 M0 20.56 C0 15.1, 0 9.64, 0 6.85 M0 6.85 C0 2.28, 2.28 0, 6.85 0 M0 6.85 C0 2.28, 2.28 0, 6.85 0" stroke="#2f9e44" stroke-width="1" fill="none"></path></g><g stroke-linecap="round" transform="translate(157.31406286416313 87.27712441079893) rotate(0 13.7089608621161 13.7089608621161)"><path d="M6.85 0 C11.52 0, 16.19 0, 20.56 0 C25.13 0, 27.42 2.28, 27.42 6.85 C27.42 10.29, 27.42 13.73, 27.42 20.56 C27.42 25.13, 25.13 27.42, 20.56 27.42 C15.9 27.42, 11.24 27.42, 6.85 27.42 C2.28 27.42, 0 25.13, 0 20.56 C0 15.18, 0 9.79, 0 6.85 C0 2.28, 2.28 0, 6.85 0" stroke="none" stroke-width="0" fill="#e9ecef"></path><path d="M6.85 0 C11.7 0, 16.54 0, 20.56 0 M6.85 0 C11.76 0, 16.66 0, 20.56 0 M20.56 0 C25.13 0, 27.42 2.28, 27.42 6.85 M20.56 0 C25.13 0, 27.42 2.28, 27.42 6.85 M27.42 6.85 C27.42 12.16, 27.42 17.46, 27.42 20.56 M27.42 6.85 C27.42 10.94, 27.42 15.02, 27.42 20.56 M27.42 20.56 C27.42 25.13, 25.13 27.42, 20.56 27.42 M27.42 20.56 C27.42 25.13, 25.13 27.42, 20.56 27.42 M20.56 27.42 C15.39 27.42, 10.22 27.42, 6.85 27.42 M20.56 27.42 C16.14 27.42, 11.71 27.42, 6.85 27.42 M6.85 27.42 C2.28 27.42, 0 25.13, 0 20.56 M6.85 27.42 C2.28 27.42, 0 25.13, 0 20.56 M0 20.56 C0 15.32, 0 10.08, 0 6.85 M0 20.56 C0 15.88, 0 11.19, 0 6.85 M0 6.85 C0 2.28, 2.28 0, 6.85 0 M0 6.85 C0 2.28, 2.28 0, 6.85 0" stroke="#2f9e44" stroke-width="1" fill="none"></path></g><g stroke-linecap="round" transform="translate(194.14257858020392 87.27712441079893) rotate(0 13.7089608621161 13.7089608621161)"><path d="M6.85 0 C11.11 0, 15.37 0, 20.56 0 C25.13 0, 27.42 2.28, 27.42 6.85 C27.42 10.4, 27.42 13.94, 27.42 20.56 C27.42 25.13, 25.13 27.42, 20.56 27.42 C17.09 27.42, 13.62 27.42, 6.85 27.42 C2.28 27.42, 0 25.13, 0 20.56 C0 17.53, 0 14.5, 0 6.85 C0 2.28, 2.28 0, 6.85 0" stroke="none" stroke-width="0" fill="#e9ecef"></path><path d="M6.85 0 C10.31 0, 13.77 0, 20.56 0 M6.85 0 C10.66 0, 14.46 0, 20.56 0 M20.56 0 C25.13 0, 27.42 2.28, 27.42 6.85 M20.56 0 C25.13 0, 27.42 2.28, 27.42 6.85 M27.42 6.85 C27.42 10.02, 27.42 13.19, 27.42 20.56 M27.42 6.85 C27.42 10.74, 27.42 14.63, 27.42 20.56 M27.42 20.56 C27.42 25.13, 25.13 27.42, 20.56 27.42 M27.42 20.56 C27.42 25.13, 25.13 27.42, 20.56 27.42 M20.56 27.42 C17.78 27.42, 15 27.42, 6.85 27.42 M20.56 27.42 C17.81 27.42, 15.06 27.42, 6.85 27.42 M6.85 27.42 C2.28 27.42, 0 25.13, 0 20.56 M6.85 27.42 C2.28 27.42, 0 25.13, 0 20.56 M0 20.56 C0 16.1, 0 11.64, 0 6.85 M0 20.56 C0 15.34, 0 10.11, 0 6.85 M0 6.85 C0 2.28, 2.28 0, 6.85 0 M0 6.85 C0 2.28, 2.28 0, 6.85 0" stroke="#2f9e44" stroke-width="1" fill="none"></path></g><g stroke-linecap="round" transform="translate(83.65703143208157 87.27712441079893) rotate(0 13.7089608621161 13.7089608621161)"><path d="M6.85 0 C11.01 0, 15.17 0, 20.56 0 C25.13 0, 27.42 2.28, 27.42 6.85 C27.42 11.99, 27.42 17.13, 27.42 20.56 C27.42 25.13, 25.13 27.42, 20.56 27.42 C17.76 27.42, 14.96 27.42, 6.85 27.42 C2.28 27.42, 0 25.13, 0 20.56 C0 16, 0 11.44, 0 6.85 C0 2.28, 2.28 0, 6.85 0" stroke="none" stroke-width="0" fill="#e9ecef"></path><path d="M6.85 0 C11.05 0, 15.24 0, 20.56 0 M6.85 0 C10.67 0, 14.48 0, 20.56 0 M20.56 0 C25.13 0, 27.42 2.28, 27.42 6.85 M20.56 0 C25.13 0, 27.42 2.28, 27.42 6.85 M27.42 6.85 C27.42 12.1, 27.42 17.35, 27.42 20.56 M27.42 6.85 C27.42 12.29, 27.42 17.72, 27.42 20.56 M27.42 20.56 C27.42 25.13, 25.13 27.42, 20.56 27.42 M27.42 20.56 C27.42 25.13, 25.13 27.42, 20.56 27.42 M20.56 27.42 C16.96 27.42, 13.36 27.42, 6.85 27.42 M20.56 27.42 C16.92 27.42, 13.27 27.42, 6.85 27.42 M6.85 27.42 C2.28 27.42, 0 25.13, 0 20.56 M6.85 27.42 C2.28 27.42, 0 25.13, 0 20.56 M0 20.56 C0 17.55, 0 14.53, 0 6.85 M0 20.56 C0 15.48, 0 10.4, 0 6.85 M0 6.85 C0 2.28, 2.28 0, 6.85 0 M0 6.85 C0 2.28, 2.28 0, 6.85 0" stroke="#2f9e44" stroke-width="1" fill="none"></path></g><g stroke-linecap="round" transform="translate(120.48554714812235 87.27712441079939) rotate(0 13.7089608621161 13.7089608621161)"><path d="M6.85 0 C10.72 0, 14.58 0, 20.56 0 C25.13 0, 27.42 2.28, 27.42 6.85 C27.42 10.76, 27.42 14.67, 27.42 20.56 C27.42 25.13, 25.13 27.42, 20.56 27.42 C16.43 27.42, 12.29 27.42, 6.85 27.42 C2.28 27.42, 0 25.13, 0 20.56 C0 17.61, 0 14.66, 0 6.85 C0 2.28, 2.28 0, 6.85 0" stroke="none" stroke-width="0" fill="#e9ecef"></path><path d="M6.85 0 C12.03 0, 17.21 0, 20.56 0 M6.85 0 C11.78 0, 16.71 0, 20.56 0 M20.56 0 C25.13 0, 27.42 2.28, 27.42 6.85 M20.56 0 C25.13 0, 27.42 2.28, 27.42 6.85 M27.42 6.85 C27.42 11.48, 27.42 16.1, 27.42 20.56 M27.42 6.85 C27.42 10.81, 27.42 14.77, 27.42 20.56 M27.42 20.56 C27.42 25.13, 25.13 27.42, 20.56 27.42 M27.42 20.56 C27.42 25.13, 25.13 27.42, 20.56 27.42 M20.56 27.42 C17.43 27.42, 14.29 27.42, 6.85 27.42 M20.56 27.42 C17.81 27.42, 15.05 27.42, 6.85 27.42 M6.85 27.42 C2.28 27.42, 0 25.13, 0 20.56 M6.85 27.42 C2.28 27.42, 0 25.13, 0 20.56 M0 20.56 C0 15.42, 0 10.27, 0 6.85 M0 20.56 C0 16.59, 0 12.61, 0 6.85 M0 6.85 C0 2.28, 2.28 0, 6.85 0 M0 6.85 C0 2.28, 2.28 0, 6.85 0" stroke="#2f9e44" stroke-width="1" fill="none"></path></g><g stroke-linecap="round" transform="translate(267.7996100122855 87.27712441079893) rotate(0 13.7089608621161 13.7089608621161)"><path d="M6.85 0 C9.86 0, 12.87 0, 20.56 0 C25.13 0, 27.42 2.28, 27.42 6.85 C27.42 10.28, 27.42 13.7, 27.42 20.56 C27.42 25.13, 25.13 27.42, 20.56 27.42 C17.45 27.42, 14.33 27.42, 6.85 27.42 C2.28 27.42, 0 25.13, 0 20.56 C0 16.79, 0 13.02, 0 6.85 C0 2.28, 2.28 0, 6.85 0" stroke="none" stroke-width="0" fill="#e9ecef"></path><path d="M6.85 0 C11.61 0, 16.37 0, 20.56 0 M6.85 0 C10.73 0, 14.61 0, 20.56 0 M20.56 0 C25.13 0, 27.42 2.28, 27.42 6.85 M20.56 0 C25.13 0, 27.42 2.28, 27.42 6.85 M27.42 6.85 C27.42 12.2, 27.42 17.54, 27.42 20.56 M27.42 6.85 C27.42 10.83, 27.42 14.81, 27.42 20.56 M27.42 20.56 C27.42 25.13, 25.13 27.42, 20.56 27.42 M27.42 20.56 C27.42 25.13, 25.13 27.42, 20.56 27.42 M20.56 27.42 C15.36 27.42, 10.16 27.42, 6.85 27.42 M20.56 27.42 C16.51 27.42, 12.45 27.42, 6.85 27.42 M6.85 27.42 C2.28 27.42, 0 25.13, 0 20.56 M6.85 27.42 C2.28 27.42, 0 25.13, 0 20.56 M0 20.56 C0 17.69, 0 14.82, 0 6.85 M0 20.56 C0 17.71, 0 14.87, 0 6.85 M0 6.85 C0 2.28, 2.28 0, 6.85 0 M0 6.85 C0 2.28, 2.28 0, 6.85 0" stroke="#2f9e44" stroke-width="1" fill="none"></path></g><g stroke-linecap="round" transform="translate(304.62812572832627 87.27712441079893) rotate(0 13.7089608621161 13.7089608621161)"><path d="M6.85 0 C10.63 0, 14.4 0, 20.56 0 C25.13 0, 27.42 2.28, 27.42 6.85 C27.42 11.66, 27.42 16.47, 27.42 20.56 C27.42 25.13, 25.13 27.42, 20.56 27.42 C16.62 27.42, 12.68 27.42, 6.85 27.42 C2.28 27.42, 0 25.13, 0 20.56 C0 17.21, 0 13.86, 0 6.85 C0 2.28, 2.28 0, 6.85 0" stroke="none" stroke-width="0" fill="#e9ecef"></path><path d="M6.85 0 C12.12 0, 17.39 0, 20.56 0 M20.56 0 C25.13 0, 27.42 2.28, 27.42 6.85 M27.42 6.85 C27.42 11.89, 27.42 16.92, 27.42 20.56 M27.42 20.56 C27.42 25.13, 25.13 27.42, 20.56 27.42 M20.56 27.42 C16.77 27.42, 12.97 27.42, 6.85 27.42 M6.85 27.42 C2.28 27.42, 0 25.13, 0 20.56 M0 20.56 C0 15.34, 0 10.12, 0 6.85 M0 6.85 C0 2.28, 2.28 0, 6.85 0" stroke="#e03131" stroke-width="1.5" fill="none" stroke-dasharray="8 9"></path></g><g stroke-linecap="round" transform="translate(157.31406286416313 49.39498834454389) rotate(0 13.7089608621161 13.7089608621161)"><path d="M6.85 0 C10.13 0, 13.41 0, 20.56 0 C25.13 0, 27.42 2.28, 27.42 6.85 C27.42 11.65, 27.42 16.44, 27.42 20.56 C27.42 25.13, 25.13 27.42, 20.56 27.42 C16.2 27.42, 11.84 27.42, 6.85 27.42 C2.28 27.42, 0 25.13, 0 20.56 C0 17.77, 0 14.98, 0 6.85 C0 2.28, 2.28 0, 6.85 0" stroke="none" stroke-width="0" fill="#e9ecef"></path><path d="M6.85 0 C10.58 0, 14.3 0, 20.56 0 M20.56 0 C25.13 0, 27.42 2.28, 27.42 6.85 M27.42 6.85 C27.42 10.44, 27.42 14.02, 27.42 20.56 M27.42 20.56 C27.42 25.13, 25.13 27.42, 20.56 27.42 M20.56 27.42 C16.43 27.42, 12.31 27.42, 6.85 27.42 M6.85 27.42 C2.28 27.42, 0 25.13, 0 20.56 M0 20.56 C0 16.57, 0 12.59, 0 6.85 M0 6.85 C0 2.28, 2.28 0, 6.85 0" stroke="#e03131" stroke-width="1.5" fill="none" stroke-dasharray="8 9"></path></g><g stroke-linecap="round" transform="translate(194.14257858020392 49.39498834454389) rotate(0 13.7089608621161 13.7089608621161)"><path d="M6.85 0 C10.45 0, 14.05 0, 20.56 0 C25.13 0, 27.42 2.28, 27.42 6.85 C27.42 11.5, 27.42 16.15, 27.42 20.56 C27.42 25.13, 25.13 27.42, 20.56 27.42 C16.06 27.42, 11.55 27.42, 6.85 27.42 C2.28 27.42, 0 25.13, 0 20.56 C0 15.33, 0 10.1, 0 6.85 C0 2.28, 2.28 0, 6.85 0" stroke="none" stroke-width="0" fill="#e9ecef"></path><path d="M6.85 0 C11.64 0, 16.43 0, 20.56 0 M20.56 0 C25.13 0, 27.42 2.28, 27.42 6.85 M27.42 6.85 C27.42 10.05, 27.42 13.25, 27.42 20.56 M27.42 20.56 C27.42 25.13, 25.13 27.42, 20.56 27.42 M20.56 27.42 C16.42 27.42, 12.28 27.42, 6.85 27.42 M6.85 27.42 C2.28 27.42, 0 25.13, 0 20.56 M0 20.56 C0 17.69, 0 14.82, 0 6.85 M0 6.85 C0 2.28, 2.28 0, 6.85 0" stroke="#e03131" stroke-width="1.5" fill="none" stroke-dasharray="8 9"></path></g><g stroke-linecap="round" transform="translate(230.9710942962447 49.39498834454389) rotate(0 13.7089608621161 13.7089608621161)"><path d="M6.85 0 C11.17 0, 15.49 0, 20.56 0 C25.13 0, 27.42 2.28, 27.42 6.85 C27.42 9.66, 27.42 12.46, 27.42 20.56 C27.42 25.13, 25.13 27.42, 20.56 27.42 C17.57 27.42, 14.58 27.42, 6.85 27.42 C2.28 27.42, 0 25.13, 0 20.56 C0 15.83, 0 11.09, 0 6.85 C0 2.28, 2.28 0, 6.85 0" stroke="none" stroke-width="0" fill="#e9ecef"></path><path d="M6.85 0 C11.95 0, 17.06 0, 20.56 0 M20.56 0 C25.13 0, 27.42 2.28, 27.42 6.85 M27.42 6.85 C27.42 12.32, 27.42 17.78, 27.42 20.56 M27.42 20.56 C27.42 25.13, 25.13 27.42, 20.56 27.42 M20.56 27.42 C15.49 27.42, 10.41 27.42, 6.85 27.42 M6.85 27.42 C2.28 27.42, 0 25.13, 0 20.56 M0 20.56 C0 17.7, 0 14.83, 0 6.85 M0 6.85 C0 2.28, 2.28 0, 6.85 0" stroke="#e03131" stroke-width="1.5" fill="none" stroke-dasharray="8 9"></path></g><g stroke-linecap="round" transform="translate(267.7996100122855 49.39498834454389) rotate(0 13.7089608621161 13.7089608621161)"><path d="M6.85 0 C9.92 0, 12.98 0, 20.56 0 C25.13 0, 27.42 2.28, 27.42 6.85 C27.42 10.92, 27.42 14.98, 27.42 20.56 C27.42 25.13, 25.13 27.42, 20.56 27.42 C15.2 27.42, 9.83 27.42, 6.85 27.42 C2.28 27.42, 0 25.13, 0 20.56 C0 16, 0 11.45, 0 6.85 C0 2.28, 2.28 0, 6.85 0" stroke="none" stroke-width="0" fill="#e9ecef"></path><path d="M6.85 0 C11.01 0, 15.17 0, 20.56 0 M20.56 0 C25.13 0, 27.42 2.28, 27.42 6.85 M27.42 6.85 C27.42 10.86, 27.42 14.86, 27.42 20.56 M27.42 20.56 C27.42 25.13, 25.13 27.42, 20.56 27.42 M20.56 27.42 C16.67 27.42, 12.77 27.42, 6.85 27.42 M6.85 27.42 C2.28 27.42, 0 25.13, 0 20.56 M0 20.56 C0 16.28, 0 12.01, 0 6.85 M0 6.85 C0 2.28, 2.28 0, 6.85 0" stroke="#e03131" stroke-width="1.5" fill="none" stroke-dasharray="8 9"></path></g><g stroke-linecap="round" transform="translate(304.62812572832627 49.39498834454389) rotate(0 13.7089608621161 13.7089608621161)"><path d="M6.85 0 C9.7 0, 12.55 0, 20.56 0 C25.13 0, 27.42 2.28, 27.42 6.85 C27.42 10.86, 27.42 14.87, 27.42 20.56 C27.42 25.13, 25.13 27.42, 20.56 27.42 C17.2 27.42, 13.84 27.42, 6.85 27.42 C2.28 27.42, 0 25.13, 0 20.56 C0 15.81, 0 11.06, 0 6.85 C0 2.28, 2.28 0, 6.85 0" stroke="none" stroke-width="0" fill="#e9ecef"></path><path d="M6.85 0 C10.71 0, 14.56 0, 20.56 0 M20.56 0 C25.13 0, 27.42 2.28, 27.42 6.85 M27.42 6.85 C27.42 10.79, 27.42 14.73, 27.42 20.56 M27.42 20.56 C27.42 25.13, 25.13 27.42, 20.56 27.42 M20.56 27.42 C15.36 27.42, 10.16 27.42, 6.85 27.42 M6.85 27.42 C2.28 27.42, 0 25.13, 0 20.56 M0 20.56 C0 16.95, 0 13.34, 0 6.85 M0 6.85 C0 2.28, 2.28 0, 6.85 0" stroke="#e03131" stroke-width="1.5" fill="none" stroke-dasharray="8 9"></path></g><g stroke-linecap="round" transform="translate(10 49.394988344544345) rotate(0 13.7089608621161 13.7089608621161)"><path d="M6.85 0 C12.3 0, 17.74 0, 20.56 0 C25.13 0, 27.42 2.28, 27.42 6.85 C27.42 10.33, 27.42 13.81, 27.42 20.56 C27.42 25.13, 25.13 27.42, 20.56 27.42 C17.73 27.42, 14.89 27.42, 6.85 27.42 C2.28 27.42, 0 25.13, 0 20.56 C0 17.04, 0 13.52, 0 6.85 C0 2.28, 2.28 0, 6.85 0" stroke="none" stroke-width="0" fill="#e9ecef"></path><path d="M6.85 0 C10.48 0, 14.1 0, 20.56 0 M20.56 0 C25.13 0, 27.42 2.28, 27.42 6.85 M27.42 6.85 C27.42 11.96, 27.42 17.06, 27.42 20.56 M27.42 20.56 C27.42 25.13, 25.13 27.42, 20.56 27.42 M20.56 27.42 C17.48 27.42, 14.4 27.42, 6.85 27.42 M6.85 27.42 C2.28 27.42, 0 25.13, 0 20.56 M0 20.56 C0 16.44, 0 12.32, 0 6.85 M0 6.85 C0 2.28, 2.28 0, 6.85 0" stroke="#e03131" stroke-width="1.5" fill="none" stroke-dasharray="8 9"></path></g><g stroke-linecap="round" transform="translate(46.82851571604078 49.394988344544345) rotate(0 13.7089608621161 13.7089608621161)"><path d="M6.85 0 C9.94 0, 13.03 0, 20.56 0 C25.13 0, 27.42 2.28, 27.42 6.85 C27.42 11.32, 27.42 15.78, 27.42 20.56 C27.42 25.13, 25.13 27.42, 20.56 27.42 C15.11 27.42, 9.65 27.42, 6.85 27.42 C2.28 27.42, 0 25.13, 0 20.56 C0 16.49, 0 12.41, 0 6.85 C0 2.28, 2.28 0, 6.85 0" stroke="none" stroke-width="0" fill="#e9ecef"></path><path d="M6.85 0 C10.83 0, 14.8 0, 20.56 0 M20.56 0 C25.13 0, 27.42 2.28, 27.42 6.85 M27.42 6.85 C27.42 10.54, 27.42 14.23, 27.42 20.56 M27.42 20.56 C27.42 25.13, 25.13 27.42, 20.56 27.42 M20.56 27.42 C16.05 27.42, 11.54 27.42, 6.85 27.42 M6.85 27.42 C2.28 27.42, 0 25.13, 0 20.56 M0 20.56 C0 15.21, 0 9.86, 0 6.85 M0 6.85 C0 2.28, 2.28 0, 6.85 0" stroke="#e03131" stroke-width="1.5" fill="none" stroke-dasharray="8 9"></path></g><g stroke-linecap="round" transform="translate(83.65703143208157 49.39498834454389) rotate(0 13.7089608621161 13.7089608621161)"><path d="M6.85 0 C10.89 0, 14.92 0, 20.56 0 C25.13 0, 27.42 2.28, 27.42 6.85 C27.42 11.09, 27.42 15.33, 27.42 20.56 C27.42 25.13, 25.13 27.42, 20.56 27.42 C17.79 27.42, 15.02 27.42, 6.85 27.42 C2.28 27.42, 0 25.13, 0 20.56 C0 16.11, 0 11.65, 0 6.85 C0 2.28, 2.28 0, 6.85 0" stroke="none" stroke-width="0" fill="#e9ecef"></path><path d="M6.85 0 C11.14 0, 15.42 0, 20.56 0 M20.56 0 C25.13 0, 27.42 2.28, 27.42 6.85 M27.42 6.85 C27.42 11.93, 27.42 17.01, 27.42 20.56 M27.42 20.56 C27.42 25.13, 25.13 27.42, 20.56 27.42 M20.56 27.42 C15.18 27.42, 9.79 27.42, 6.85 27.42 M6.85 27.42 C2.28 27.42, 0 25.13, 0 20.56 M0 20.56 C0 17.56, 0 14.56, 0 6.85 M0 6.85 C0 2.28, 2.28 0, 6.85 0" stroke="#e03131" stroke-width="1.5" fill="none" stroke-dasharray="8 9"></path></g><g stroke-linecap="round" transform="translate(120.48554714812235 49.39498834454389) rotate(0 13.7089608621161 13.7089608621161)"><path d="M6.85 0 C11.55 0, 16.24 0, 20.56 0 C25.13 0, 27.42 2.28, 27.42 6.85 C27.42 12.27, 27.42 17.68, 27.42 20.56 C27.42 25.13, 25.13 27.42, 20.56 27.42 C17.49 27.42, 14.42 27.42, 6.85 27.42 C2.28 27.42, 0 25.13, 0 20.56 C0 16.59, 0 12.62, 0 6.85 C0 2.28, 2.28 0, 6.85 0" stroke="none" stroke-width="0" fill="#e9ecef"></path><path d="M6.85 0 C12.21 0, 17.56 0, 20.56 0 M20.56 0 C25.13 0, 27.42 2.28, 27.42 6.85 M27.42 6.85 C27.42 12.23, 27.42 17.61, 27.42 20.56 M27.42 20.56 C27.42 25.13, 25.13 27.42, 20.56 27.42 M20.56 27.42 C16.44 27.42, 12.32 27.42, 6.85 27.42 M6.85 27.42 C2.28 27.42, 0 25.13, 0 20.56 M0 20.56 C0 16.11, 0 11.66, 0 6.85 M0 6.85 C0 2.28, 2.28 0, 6.85 0" stroke="#e03131" stroke-width="1.5" fill="none" stroke-dasharray="8 9"></path></g><g stroke-linecap="round" transform="translate(230.9710942962447 87.27712441079893) rotate(0 13.7089608621161 13.7089608621161)"><path d="M6.85 0 C11.31 0, 15.77 0, 20.56 0 C25.13 0, 27.42 2.28, 27.42 6.85 C27.42 10.76, 27.42 14.66, 27.42 20.56 C27.42 25.13, 25.13 27.42, 20.56 27.42 C15.14 27.42, 9.71 27.42, 6.85 27.42 C2.28 27.42, 0 25.13, 0 20.56 C0 17.12, 0 13.68, 0 6.85 C0 2.28, 2.28 0, 6.85 0" stroke="none" stroke-width="0" fill="#e9ecef"></path><path d="M6.85 0 C10.21 0, 13.56 0, 20.56 0 M6.85 0 C10.55 0, 14.24 0, 20.56 0 M20.56 0 C25.13 0, 27.42 2.28, 27.42 6.85 M20.56 0 C25.13 0, 27.42 2.28, 27.42 6.85 M27.42 6.85 C27.42 10.08, 27.42 13.3, 27.42 20.56 M27.42 6.85 C27.42 12.27, 27.42 17.69, 27.42 20.56 M27.42 20.56 C27.42 25.13, 25.13 27.42, 20.56 27.42 M27.42 20.56 C27.42 25.13, 25.13 27.42, 20.56 27.42 M20.56 27.42 C16.43 27.42, 12.3 27.42, 6.85 27.42 M20.56 27.42 C17.08 27.42, 13.6 27.42, 6.85 27.42 M6.85 27.42 C2.28 27.42, 0 25.13, 0 20.56 M6.85 27.42 C2.28 27.42, 0 25.13, 0 20.56 M0 20.56 C0 15.38, 0 10.19, 0 6.85 M0 20.56 C0 16.54, 0 12.51, 0 6.85 M0 6.85 C0 2.28, 2.28 0, 6.85 0 M0 6.85 C0 2.28, 2.28 0, 6.85 0" stroke="#2f9e44" stroke-width="1" fill="none"></path></g><g stroke-linecap="round" transform="translate(10.000000000000455 200.92353260956452) rotate(0 13.7089608621161 13.7089608621161)"><path d="M6.85 0 C12.01 0, 17.17 0, 20.56 0 C25.13 0, 27.42 2.28, 27.42 6.85 C27.42 12.09, 27.42 17.33, 27.42 20.56 C27.42 25.13, 25.13 27.42, 20.56 27.42 C16.86 27.42, 13.17 27.42, 6.85 27.42 C2.28 27.42, 0 25.13, 0 20.56 C0 17.53, 0 14.5, 0 6.85 C0 2.28, 2.28 0, 6.85 0" stroke="none" stroke-width="0" fill="#e9ecef"></path><path d="M6.85 0 C10.15 0, 13.44 0, 20.56 0 M20.56 0 C25.13 0, 27.42 2.28, 27.42 6.85 M27.42 6.85 C27.42 11.26, 27.42 15.67, 27.42 20.56 M27.42 20.56 C27.42 25.13, 25.13 27.42, 20.56 27.42 M20.56 27.42 C17.07 27.42, 13.57 27.42, 6.85 27.42 M6.85 27.42 C2.28 27.42, 0 25.13, 0 20.56 M0 20.56 C0 17.16, 0 13.75, 0 6.85 M0 6.85 C0 2.28, 2.28 0, 6.85 0" stroke="#e03131" stroke-width="1.5" fill="none" stroke-dasharray="8 9"></path></g><g stroke-linecap="round" transform="translate(46.82851571604124 200.92353260956452) rotate(0 13.7089608621161 13.7089608621161)"><path d="M6.85 0 C10.66 0, 14.47 0, 20.56 0 C25.13 0, 27.42 2.28, 27.42 6.85 C27.42 11.46, 27.42 16.07, 27.42 20.56 C27.42 25.13, 25.13 27.42, 20.56 27.42 C17.41 27.42, 14.25 27.42, 6.85 27.42 C2.28 27.42, 0 25.13, 0 20.56 C0 15.21, 0 9.85, 0 6.85 C0 2.28, 2.28 0, 6.85 0" stroke="none" stroke-width="0" fill="#e9ecef"></path><path d="M6.85 0 C11.33 0, 15.81 0, 20.56 0 M6.85 0 C11.06 0, 15.26 0, 20.56 0 M20.56 0 C25.13 0, 27.42 2.28, 27.42 6.85 M20.56 0 C25.13 0, 27.42 2.28, 27.42 6.85 M27.42 6.85 C27.42 9.99, 27.42 13.13, 27.42 20.56 M27.42 6.85 C27.42 12.18, 27.42 17.51, 27.42 20.56 M27.42 20.56 C27.42 25.13, 25.13 27.42, 20.56 27.42 M27.42 20.56 C27.42 25.13, 25.13 27.42, 20.56 27.42 M20.56 27.42 C15.19 27.42, 9.82 27.42, 6.85 27.42 M20.56 27.42 C17.69 27.42, 14.81 27.42, 6.85 27.42 M6.85 27.42 C2.28 27.42, 0 25.13, 0 20.56 M6.85 27.42 C2.28 27.42, 0 25.13, 0 20.56 M0 20.56 C0 15.18, 0 9.79, 0 6.85 M0 20.56 C0 15.89, 0 11.22, 0 6.85 M0 6.85 C0 2.28, 2.28 0, 6.85 0 M0 6.85 C0 2.28, 2.28 0, 6.85 0" stroke="#2f9e44" stroke-width="1" fill="none"></path></g><g stroke-linecap="round" transform="translate(83.65703143208202 200.92353260956406) rotate(0 13.7089608621161 13.7089608621161)"><path d="M6.85 0 C10.65 0, 14.45 0, 20.56 0 C25.13 0, 27.42 2.28, 27.42 6.85 C27.42 11.15, 27.42 15.45, 27.42 20.56 C27.42 25.13, 25.13 27.42, 20.56 27.42 C17.58 27.42, 14.59 27.42, 6.85 27.42 C2.28 27.42, 0 25.13, 0 20.56 C0 16.27, 0 11.99, 0 6.85 C0 2.28, 2.28 0, 6.85 0" stroke="none" stroke-width="0" fill="#e9ecef"></path><path d="M6.85 0 C11.34 0, 15.82 0, 20.56 0 M6.85 0 C11.26 0, 15.67 0, 20.56 0 M20.56 0 C25.13 0, 27.42 2.28, 27.42 6.85 M20.56 0 C25.13 0, 27.42 2.28, 27.42 6.85 M27.42 6.85 C27.42 11.65, 27.42 16.45, 27.42 20.56 M27.42 6.85 C27.42 10.26, 27.42 13.67, 27.42 20.56 M27.42 20.56 C27.42 25.13, 25.13 27.42, 20.56 27.42 M27.42 20.56 C27.42 25.13, 25.13 27.42, 20.56 27.42 M20.56 27.42 C16.48 27.42, 12.4 27.42, 6.85 27.42 M20.56 27.42 C15.33 27.42, 10.09 27.42, 6.85 27.42 M6.85 27.42 C2.28 27.42, 0 25.13, 0 20.56 M6.85 27.42 C2.28 27.42, 0 25.13, 0 20.56 M0 20.56 C0 16.73, 0 12.9, 0 6.85 M0 20.56 C0 17.53, 0 14.5, 0 6.85 M0 6.85 C0 2.28, 2.28 0, 6.85 0 M0 6.85 C0 2.28, 2.28 0, 6.85 0" stroke="#2f9e44" stroke-width="1" fill="none"></path></g><g stroke-linecap="round" transform="translate(120.4855471481228 200.92353260956406) rotate(0 13.7089608621161 13.7089608621161)"><path d="M6.85 0 C9.66 0, 12.46 0, 20.56 0 C25.13 0, 27.42 2.28, 27.42 6.85 C27.42 10.94, 27.42 15.02, 27.42 20.56 C27.42 25.13, 25.13 27.42, 20.56 27.42 C16.63 27.42, 12.69 27.42, 6.85 27.42 C2.28 27.42, 0 25.13, 0 20.56 C0 15.59, 0 10.62, 0 6.85 C0 2.28, 2.28 0, 6.85 0" stroke="none" stroke-width="0" fill="#e9ecef"></path><path d="M6.85 0 C10.93 0, 15.01 0, 20.56 0 M6.85 0 C11.12 0, 15.38 0, 20.56 0 M20.56 0 C25.13 0, 27.42 2.28, 27.42 6.85 M20.56 0 C25.13 0, 27.42 2.28, 27.42 6.85 M27.42 6.85 C27.42 9.75, 27.42 12.64, 27.42 20.56 M27.42 6.85 C27.42 11.34, 27.42 15.83, 27.42 20.56 M27.42 20.56 C27.42 25.13, 25.13 27.42, 20.56 27.42 M27.42 20.56 C27.42 25.13, 25.13 27.42, 20.56 27.42 M20.56 27.42 C15.24 27.42, 9.91 27.42, 6.85 27.42 M20.56 27.42 C15.12 27.42, 9.67 27.42, 6.85 27.42 M6.85 27.42 C2.28 27.42, 0 25.13, 0 20.56 M6.85 27.42 C2.28 27.42, 0 25.13, 0 20.56 M0 20.56 C0 16, 0 11.44, 0 6.85 M0 20.56 C0 17.19, 0 13.81, 0 6.85 M0 6.85 C0 2.28, 2.28 0, 6.85 0 M0 6.85 C0 2.28, 2.28 0, 6.85 0" stroke="#2f9e44" stroke-width="1" fill="none"></path></g><g stroke-linecap="round" transform="translate(157.3140628641636 200.92353260956406) rotate(0 13.7089608621161 13.7089608621161)"><path d="M6.85 0 C10.01 0, 13.17 0, 20.56 0 C25.13 0, 27.42 2.28, 27.42 6.85 C27.42 12.32, 27.42 17.78, 27.42 20.56 C27.42 25.13, 25.13 27.42, 20.56 27.42 C17.03 27.42, 13.5 27.42, 6.85 27.42 C2.28 27.42, 0 25.13, 0 20.56 C0 16.68, 0 12.8, 0 6.85 C0 2.28, 2.28 0, 6.85 0" stroke="none" stroke-width="0" fill="#e9ecef"></path><path d="M6.85 0 C10.09 0, 13.32 0, 20.56 0 M6.85 0 C12.32 0, 17.79 0, 20.56 0 M20.56 0 C25.13 0, 27.42 2.28, 27.42 6.85 M20.56 0 C25.13 0, 27.42 2.28, 27.42 6.85 M27.42 6.85 C27.42 11.47, 27.42 16.09, 27.42 20.56 M27.42 6.85 C27.42 9.88, 27.42 12.9, 27.42 20.56 M27.42 20.56 C27.42 25.13, 25.13 27.42, 20.56 27.42 M27.42 20.56 C27.42 25.13, 25.13 27.42, 20.56 27.42 M20.56 27.42 C15.15 27.42, 9.74 27.42, 6.85 27.42 M20.56 27.42 C15.38 27.42, 10.19 27.42, 6.85 27.42 M6.85 27.42 C2.28 27.42, 0 25.13, 0 20.56 M6.85 27.42 C2.28 27.42, 0 25.13, 0 20.56 M0 20.56 C0 17.74, 0 14.91, 0 6.85 M0 20.56 C0 15.58, 0 10.59, 0 6.85 M0 6.85 C0 2.28, 2.28 0, 6.85 0 M0 6.85 C0 2.28, 2.28 0, 6.85 0" stroke="#2f9e44" stroke-width="1" fill="none"></path></g><g stroke-linecap="round" transform="translate(194.14257858020437 200.92353260956406) rotate(0 13.7089608621161 13.7089608621161)"><path d="M6.85 0 C11.81 0, 16.77 0, 20.56 0 C25.13 0, 27.42 2.28, 27.42 6.85 C27.42 10.08, 27.42 13.31, 27.42 20.56 C27.42 25.13, 25.13 27.42, 20.56 27.42 C15.23 27.42, 9.89 27.42, 6.85 27.42 C2.28 27.42, 0 25.13, 0 20.56 C0 15.64, 0 10.72, 0 6.85 C0 2.28, 2.28 0, 6.85 0" stroke="none" stroke-width="0" fill="#e9ecef"></path><path d="M6.85 0 C11.98 0, 17.11 0, 20.56 0 M6.85 0 C10.15 0, 13.44 0, 20.56 0 M20.56 0 C25.13 0, 27.42 2.28, 27.42 6.85 M20.56 0 C25.13 0, 27.42 2.28, 27.42 6.85 M27.42 6.85 C27.42 12.18, 27.42 17.51, 27.42 20.56 M27.42 6.85 C27.42 11.39, 27.42 15.93, 27.42 20.56 M27.42 20.56 C27.42 25.13, 25.13 27.42, 20.56 27.42 M27.42 20.56 C27.42 25.13, 25.13 27.42, 20.56 27.42 M20.56 27.42 C16.35 27.42, 12.14 27.42, 6.85 27.42 M20.56 27.42 C15.57 27.42, 10.58 27.42, 6.85 27.42 M6.85 27.42 C2.28 27.42, 0 25.13, 0 20.56 M6.85 27.42 C2.28 27.42, 0 25.13, 0 20.56 M0 20.56 C0 17.29, 0 14.01, 0 6.85 M0 20.56 C0 16.75, 0 12.93, 0 6.85 M0 6.85 C0 2.28, 2.28 0, 6.85 0 M0 6.85 C0 2.28, 2.28 0, 6.85 0" stroke="#2f9e44" stroke-width="1" fill="none"></path></g><g stroke-linecap="round" transform="translate(230.97109429624516 200.92353260956406) rotate(0 13.7089608621161 13.7089608621161)"><path d="M6.85 0 C10.43 0, 14.01 0, 20.56 0 C25.13 0, 27.42 2.28, 27.42 6.85 C27.42 11.85, 27.42 16.86, 27.42 20.56 C27.42 25.13, 25.13 27.42, 20.56 27.42 C17.61 27.42, 14.66 27.42, 6.85 27.42 C2.28 27.42, 0 25.13, 0 20.56 C0 17.27, 0 13.97, 0 6.85 C0 2.28, 2.28 0, 6.85 0" stroke="none" stroke-width="0" fill="#e9ecef"></path><path d="M6.85 0 C11.62 0, 16.38 0, 20.56 0 M6.85 0 C11.96 0, 17.06 0, 20.56 0 M20.56 0 C25.13 0, 27.42 2.28, 27.42 6.85 M20.56 0 C25.13 0, 27.42 2.28, 27.42 6.85 M27.42 6.85 C27.42 10.39, 27.42 13.93, 27.42 20.56 M27.42 6.85 C27.42 10.98, 27.42 15.1, 27.42 20.56 M27.42 20.56 C27.42 25.13, 25.13 27.42, 20.56 27.42 M27.42 20.56 C27.42 25.13, 25.13 27.42, 20.56 27.42 M20.56 27.42 C15.29 27.42, 10.01 27.42, 6.85 27.42 M20.56 27.42 C17.09 27.42, 13.61 27.42, 6.85 27.42 M6.85 27.42 C2.28 27.42, 0 25.13, 0 20.56 M6.85 27.42 C2.28 27.42, 0 25.13, 0 20.56 M0 20.56 C0 15.81, 0 11.06, 0 6.85 M0 20.56 C0 17.04, 0 13.52, 0 6.85 M0 6.85 C0 2.28, 2.28 0, 6.85 0 M0 6.85 C0 2.28, 2.28 0, 6.85 0" stroke="#2f9e44" stroke-width="1" fill="none"></path></g><g stroke-linecap="round" transform="translate(267.79961001228594 200.92353260956406) rotate(0 13.7089608621161 13.7089608621161)"><path d="M6.85 0 C12.24 0, 17.62 0, 20.56 0 C25.13 0, 27.42 2.28, 27.42 6.85 C27.42 11.98, 27.42 17.1, 27.42 20.56 C27.42 25.13, 25.13 27.42, 20.56 27.42 C16.64 27.42, 12.72 27.42, 6.85 27.42 C2.28 27.42, 0 25.13, 0 20.56 C0 15.67, 0 10.78, 0 6.85 C0 2.28, 2.28 0, 6.85 0" stroke="none" stroke-width="0" fill="#e9ecef"></path><path d="M6.85 0 C11.34 0, 15.82 0, 20.56 0 M6.85 0 C12.32 0, 17.78 0, 20.56 0 M20.56 0 C25.13 0, 27.42 2.28, 27.42 6.85 M20.56 0 C25.13 0, 27.42 2.28, 27.42 6.85 M27.42 6.85 C27.42 11.74, 27.42 16.62, 27.42 20.56 M27.42 6.85 C27.42 9.72, 27.42 12.59, 27.42 20.56 M27.42 20.56 C27.42 25.13, 25.13 27.42, 20.56 27.42 M27.42 20.56 C27.42 25.13, 25.13 27.42, 20.56 27.42 M20.56 27.42 C16.94 27.42, 13.32 27.42, 6.85 27.42 M20.56 27.42 C17.76 27.42, 14.96 27.42, 6.85 27.42 M6.85 27.42 C2.28 27.42, 0 25.13, 0 20.56 M6.85 27.42 C2.28 27.42, 0 25.13, 0 20.56 M0 20.56 C0 16.54, 0 12.52, 0 6.85 M0 20.56 C0 15.83, 0 11.09, 0 6.85 M0 6.85 C0 2.28, 2.28 0, 6.85 0 M0 6.85 C0 2.28, 2.28 0, 6.85 0" stroke="#2f9e44" stroke-width="1" fill="none"></path></g><g stroke-linecap="round" transform="translate(304.6281257283267 200.92353260956406) rotate(0 13.7089608621161 13.7089608621161)"><path d="M6.85 0 C11.23 0, 15.6 0, 20.56 0 C25.13 0, 27.42 2.28, 27.42 6.85 C27.42 9.83, 27.42 12.81, 27.42 20.56 C27.42 25.13, 25.13 27.42, 20.56 27.42 C17.29 27.42, 14.02 27.42, 6.85 27.42 C2.28 27.42, 0 25.13, 0 20.56 C0 16.54, 0 12.52, 0 6.85 C0 2.28, 2.28 0, 6.85 0" stroke="none" stroke-width="0" fill="#e9ecef"></path><path d="M6.85 0 C9.85 0, 12.85 0, 20.56 0 M20.56 0 C25.13 0, 27.42 2.28, 27.42 6.85 M27.42 6.85 C27.42 10.05, 27.42 13.25, 27.42 20.56 M27.42 20.56 C27.42 25.13, 25.13 27.42, 20.56 27.42 M20.56 27.42 C16.8 27.42, 13.04 27.42, 6.85 27.42 M6.85 27.42 C2.28 27.42, 0 25.13, 0 20.56 M0 20.56 C0 17.61, 0 14.66, 0 6.85 M0 6.85 C0 2.28, 2.28 0, 6.85 0" stroke="#e03131" stroke-width="1.5" fill="none" stroke-dasharray="8 9"></path></g><g stroke-linecap="round" transform="translate(46.82851571604124 163.04139654330947) rotate(0 13.7089608621161 13.7089608621161)"><path d="M6.85 0 C10.56 0, 14.27 0, 20.56 0 M6.85 0 C10.43 0, 14 0, 20.56 0 M20.56 0 C25.13 0, 27.42 2.28, 27.42 6.85 M20.56 0 C25.13 0, 27.42 2.28, 27.42 6.85 M27.42 6.85 C27.42 11.66, 27.42 16.46, 27.42 20.56 M27.42 6.85 C27.42 9.71, 27.42 12.57, 27.42 20.56 M27.42 20.56 C27.42 25.13, 25.13 27.42, 20.56 27.42 M27.42 20.56 C27.42 25.13, 25.13 27.42, 20.56 27.42 M20.56 27.42 C17.11 27.42, 13.66 27.42, 6.85 27.42 M20.56 27.42 C16.8 27.42, 13.05 27.42, 6.85 27.42 M6.85 27.42 C2.28 27.42, 0 25.13, 0 20.56 M6.85 27.42 C2.28 27.42, 0 25.13, 0 20.56 M0 20.56 C0 15.39, 0 10.22, 0 6.85 M0 20.56 C0 17.09, 0 13.63, 0 6.85 M0 6.85 C0 2.28, 2.28 0, 6.85 0 M0 6.85 C0 2.28, 2.28 0, 6.85 0" stroke="#f08c00" stroke-width="1" fill="none"></path></g><g stroke-linecap="round" transform="translate(83.65703143208202 163.04139654330902) rotate(0 13.7089608621161 13.7089608621161)"><path d="M6.85 0 C10.39 0, 13.92 0, 20.56 0 M6.85 0 C11.11 0, 15.36 0, 20.56 0 M20.56 0 C25.13 0, 27.42 2.28, 27.42 6.85 M20.56 0 C25.13 0, 27.42 2.28, 27.42 6.85 M27.42 6.85 C27.42 10, 27.42 13.14, 27.42 20.56 M27.42 6.85 C27.42 11.91, 27.42 16.97, 27.42 20.56 M27.42 20.56 C27.42 25.13, 25.13 27.42, 20.56 27.42 M27.42 20.56 C27.42 25.13, 25.13 27.42, 20.56 27.42 M20.56 27.42 C15.38 27.42, 10.2 27.42, 6.85 27.42 M20.56 27.42 C15.45 27.42, 10.34 27.42, 6.85 27.42 M6.85 27.42 C2.28 27.42, 0 25.13, 0 20.56 M6.85 27.42 C2.28 27.42, 0 25.13, 0 20.56 M0 20.56 C0 15.08, 0 9.6, 0 6.85 M0 20.56 C0 16.07, 0 11.57, 0 6.85 M0 6.85 C0 2.28, 2.28 0, 6.85 0 M0 6.85 C0 2.28, 2.28 0, 6.85 0" stroke="#f08c00" stroke-width="1" fill="none"></path></g><g stroke-linecap="round" transform="translate(120.4855471481228 163.04139654330947) rotate(0 13.7089608621161 13.7089608621161)"><path d="M6.85 0 C9.79 0, 12.72 0, 20.56 0 M6.85 0 C11.04 0, 15.23 0, 20.56 0 M20.56 0 C25.13 0, 27.42 2.28, 27.42 6.85 M20.56 0 C25.13 0, 27.42 2.28, 27.42 6.85 M27.42 6.85 C27.42 9.95, 27.42 13.04, 27.42 20.56 M27.42 6.85 C27.42 9.7, 27.42 12.54, 27.42 20.56 M27.42 20.56 C27.42 25.13, 25.13 27.42, 20.56 27.42 M27.42 20.56 C27.42 25.13, 25.13 27.42, 20.56 27.42 M20.56 27.42 C17.15 27.42, 13.74 27.42, 6.85 27.42 M20.56 27.42 C16.54 27.42, 12.52 27.42, 6.85 27.42 M6.85 27.42 C2.28 27.42, 0 25.13, 0 20.56 M6.85 27.42 C2.28 27.42, 0 25.13, 0 20.56 M0 20.56 C0 16.41, 0 12.25, 0 6.85 M0 20.56 C0 17.77, 0 14.97, 0 6.85 M0 6.85 C0 2.28, 2.28 0, 6.85 0 M0 6.85 C0 2.28, 2.28 0, 6.85 0" stroke="#f08c00" stroke-width="1" fill="none"></path></g><g stroke-linecap="round" transform="translate(157.3140628641636 163.04139654330902) rotate(0 13.7089608621161 13.7089608621161)"><path d="M6.85 0 C10.65 0, 14.44 0, 20.56 0 C25.13 0, 27.42 2.28, 27.42 6.85 C27.42 10.14, 27.42 13.42, 27.42 20.56 C27.42 25.13, 25.13 27.42, 20.56 27.42 C17.03 27.42, 13.49 27.42, 6.85 27.42 C2.28 27.42, 0 25.13, 0 20.56 C0 17.03, 0 13.5, 0 6.85 C0 2.28, 2.28 0, 6.85 0" stroke="none" stroke-width="0" fill="#e9ecef"></path><path d="M6.85 0 C10.2 0, 13.54 0, 20.56 0 M6.85 0 C10.05 0, 13.25 0, 20.56 0 M20.56 0 C25.13 0, 27.42 2.28, 27.42 6.85 M20.56 0 C25.13 0, 27.42 2.28, 27.42 6.85 M27.42 6.85 C27.42 10.71, 27.42 14.57, 27.42 20.56 M27.42 6.85 C27.42 9.77, 27.42 12.68, 27.42 20.56 M27.42 20.56 C27.42 25.13, 25.13 27.42, 20.56 27.42 M27.42 20.56 C27.42 25.13, 25.13 27.42, 20.56 27.42 M20.56 27.42 C17.5 27.42, 14.44 27.42, 6.85 27.42 M20.56 27.42 C15.75 27.42, 10.93 27.42, 6.85 27.42 M6.85 27.42 C2.28 27.42, 0 25.13, 0 20.56 M6.85 27.42 C2.28 27.42, 0 25.13, 0 20.56 M0 20.56 C0 17.18, 0 13.8, 0 6.85 M0 20.56 C0 15.16, 0 9.76, 0 6.85 M0 6.85 C0 2.28, 2.28 0, 6.85 0 M0 6.85 C0 2.28, 2.28 0, 6.85 0" stroke="#2f9e44" stroke-width="1" fill="none"></path></g><g stroke-linecap="round" transform="translate(194.14257858020437 163.04139654330902) rotate(0 13.7089608621161 13.7089608621161)"><path d="M6.85 0 C11.99 0, 17.12 0, 20.56 0 M6.85 0 C11.91 0, 16.97 0, 20.56 0 M20.56 0 C25.13 0, 27.42 2.28, 27.42 6.85 M20.56 0 C25.13 0, 27.42 2.28, 27.42 6.85 M27.42 6.85 C27.42 11.16, 27.42 15.48, 27.42 20.56 M27.42 6.85 C27.42 9.86, 27.42 12.86, 27.42 20.56 M27.42 20.56 C27.42 25.13, 25.13 27.42, 20.56 27.42 M27.42 20.56 C27.42 25.13, 25.13 27.42, 20.56 27.42 M20.56 27.42 C16.52 27.42, 12.48 27.42, 6.85 27.42 M20.56 27.42 C15.89 27.42, 11.22 27.42, 6.85 27.42 M6.85 27.42 C2.28 27.42, 0 25.13, 0 20.56 M6.85 27.42 C2.28 27.42, 0 25.13, 0 20.56 M0 20.56 C0 16.92, 0 13.27, 0 6.85 M0 20.56 C0 16.95, 0 13.34, 0 6.85 M0 6.85 C0 2.28, 2.28 0, 6.85 0 M0 6.85 C0 2.28, 2.28 0, 6.85 0" stroke="#f08c00" stroke-width="1" fill="none"></path></g><g stroke-linecap="round" transform="translate(230.97109429624516 163.04139654330902) rotate(0 13.7089608621161 13.7089608621161)"><path d="M6.85 0 C11.31 0, 15.76 0, 20.56 0 M6.85 0 C12.25 0, 17.64 0, 20.56 0 M20.56 0 C25.13 0, 27.42 2.28, 27.42 6.85 M20.56 0 C25.13 0, 27.42 2.28, 27.42 6.85 M27.42 6.85 C27.42 10.9, 27.42 14.95, 27.42 20.56 M27.42 6.85 C27.42 12.22, 27.42 17.59, 27.42 20.56 M27.42 20.56 C27.42 25.13, 25.13 27.42, 20.56 27.42 M27.42 20.56 C27.42 25.13, 25.13 27.42, 20.56 27.42 M20.56 27.42 C15.91 27.42, 11.25 27.42, 6.85 27.42 M20.56 27.42 C15.72 27.42, 10.87 27.42, 6.85 27.42 M6.85 27.42 C2.28 27.42, 0 25.13, 0 20.56 M6.85 27.42 C2.28 27.42, 0 25.13, 0 20.56 M0 20.56 C0 17.79, 0 15.02, 0 6.85 M0 20.56 C0 16.8, 0 13.04, 0 6.85 M0 6.85 C0 2.28, 2.28 0, 6.85 0 M0 6.85 C0 2.28, 2.28 0, 6.85 0" stroke="#f08c00" stroke-width="1" fill="none"></path></g><g stroke-linecap="round" transform="translate(267.79961001228594 163.04139654330902) rotate(0 13.7089608621161 13.7089608621161)"><path d="M6.85 0 C11.54 0, 16.22 0, 20.56 0 M6.85 0 C10.45 0, 14.05 0, 20.56 0 M20.56 0 C25.13 0, 27.42 2.28, 27.42 6.85 M20.56 0 C25.13 0, 27.42 2.28, 27.42 6.85 M27.42 6.85 C27.42 10.83, 27.42 14.81, 27.42 20.56 M27.42 6.85 C27.42 10.98, 27.42 15.1, 27.42 20.56 M27.42 20.56 C27.42 25.13, 25.13 27.42, 20.56 27.42 M27.42 20.56 C27.42 25.13, 25.13 27.42, 20.56 27.42 M20.56 27.42 C16.44 27.42, 12.31 27.42, 6.85 27.42 M20.56 27.42 C17.57 27.42, 14.58 27.42, 6.85 27.42 M6.85 27.42 C2.28 27.42, 0 25.13, 0 20.56 M6.85 27.42 C2.28 27.42, 0 25.13, 0 20.56 M0 20.56 C0 16.04, 0 11.51, 0 6.85 M0 20.56 C0 15.66, 0 10.76, 0 6.85 M0 6.85 C0 2.28, 2.28 0, 6.85 0 M0 6.85 C0 2.28, 2.28 0, 6.85 0" stroke="#f08c00" stroke-width="1" fill="none"></path></g><g stroke-linecap="round" transform="translate(304.6281257283267 163.04139654330902) rotate(0 13.7089608621161 13.7089608621161)"><path d="M6.85 0 C10.88 0, 14.9 0, 20.56 0 C25.13 0, 27.42 2.28, 27.42 6.85 C27.42 11.66, 27.42 16.46, 27.42 20.56 C27.42 25.13, 25.13 27.42, 20.56 27.42 C16.92 27.42, 13.29 27.42, 6.85 27.42 C2.28 27.42, 0 25.13, 0 20.56 C0 17.02, 0 13.48, 0 6.85 C0 2.28, 2.28 0, 6.85 0" stroke="none" stroke-width="0" fill="#ffc9c9"></path><path d="M6.85 0 C11.05 0, 15.25 0, 20.56 0 M20.56 0 C25.13 0, 27.42 2.28, 27.42 6.85 M27.42 6.85 C27.42 10.89, 27.42 14.92, 27.42 20.56 M27.42 20.56 C27.42 25.13, 25.13 27.42, 20.56 27.42 M20.56 27.42 C15.5 27.42, 10.45 27.42, 6.85 27.42 M6.85 27.42 C2.28 27.42, 0 25.13, 0 20.56 M0 20.56 C0 16.18, 0 11.79, 0 6.85 M0 6.85 C0 2.28, 2.28 0, 6.85 0" stroke="#e03131" stroke-width="1.5" fill="none" stroke-dasharray="8 9"></path></g><g stroke-linecap="round" transform="translate(10 125.15926047705443) rotate(0 13.7089608621161 13.7089608621161)"><path d="M6.85 0 C10.69 0, 14.53 0, 20.56 0 C25.13 0, 27.42 2.28, 27.42 6.85 C27.42 12.31, 27.42 17.76, 27.42 20.56 C27.42 25.13, 25.13 27.42, 20.56 27.42 C16.43 27.42, 12.3 27.42, 6.85 27.42 C2.28 27.42, 0 25.13, 0 20.56 C0 17.19, 0 13.81, 0 6.85 C0 2.28, 2.28 0, 6.85 0" stroke="none" stroke-width="0" fill="#a5d8ff"></path><path d="M6.85 0 C11.41 0, 15.97 0, 20.56 0 M20.56 0 C25.13 0, 27.42 2.28, 27.42 6.85 M27.42 6.85 C27.42 9.82, 27.42 12.79, 27.42 20.56 M27.42 20.56 C27.42 25.13, 25.13 27.42, 20.56 27.42 M20.56 27.42 C15.51 27.42, 10.46 27.42, 6.85 27.42 M6.85 27.42 C2.28 27.42, 0 25.13, 0 20.56 M0 20.56 C0 17.25, 0 13.93, 0 6.85 M0 6.85 C0 2.28, 2.28 0, 6.85 0" stroke="#e03131" stroke-width="1.5" fill="none" stroke-dasharray="8 9"></path></g><g stroke-linecap="round" transform="translate(46.82851571604078 125.15926047705443) rotate(0 13.7089608621161 13.7089608621161)"><path d="M6.85 0 C9.77 0, 12.68 0, 20.56 0 M6.85 0 C10.89 0, 14.92 0, 20.56 0 M20.56 0 C25.13 0, 27.42 2.28, 27.42 6.85 M20.56 0 C25.13 0, 27.42 2.28, 27.42 6.85 M27.42 6.85 C27.42 11.1, 27.42 15.34, 27.42 20.56 M27.42 6.85 C27.42 11.24, 27.42 15.62, 27.42 20.56 M27.42 20.56 C27.42 25.13, 25.13 27.42, 20.56 27.42 M27.42 20.56 C27.42 25.13, 25.13 27.42, 20.56 27.42 M20.56 27.42 C16.13 27.42, 11.7 27.42, 6.85 27.42 M20.56 27.42 C15.76 27.42, 10.96 27.42, 6.85 27.42 M6.85 27.42 C2.28 27.42, 0 25.13, 0 20.56 M6.85 27.42 C2.28 27.42, 0 25.13, 0 20.56 M0 20.56 C0 15.65, 0 10.75, 0 6.85 M0 20.56 C0 17.02, 0 13.48, 0 6.85 M0 6.85 C0 2.28, 2.28 0, 6.85 0 M0 6.85 C0 2.28, 2.28 0, 6.85 0" stroke="#f08c00" stroke-width="1" fill="none"></path></g><g stroke-linecap="round" transform="translate(83.65703143208157 125.15926047705398) rotate(0 13.7089608621161 13.7089608621161)"><path d="M6.85 0 C10.5 0, 14.14 0, 20.56 0 C25.13 0, 27.42 2.28, 27.42 6.85 C27.42 11.15, 27.42 15.45, 27.42 20.56 C27.42 25.13, 25.13 27.42, 20.56 27.42 C17.35 27.42, 14.13 27.42, 6.85 27.42 C2.28 27.42, 0 25.13, 0 20.56 C0 15.43, 0 10.29, 0 6.85 C0 2.28, 2.28 0, 6.85 0" stroke="none" stroke-width="0" fill="#e9ecef"></path><path d="M6.85 0 C10.19 0, 13.52 0, 20.56 0 M6.85 0 C12.17 0, 17.48 0, 20.56 0 M20.56 0 C25.13 0, 27.42 2.28, 27.42 6.85 M20.56 0 C25.13 0, 27.42 2.28, 27.42 6.85 M27.42 6.85 C27.42 10.71, 27.42 14.56, 27.42 20.56 M27.42 6.85 C27.42 12.23, 27.42 17.61, 27.42 20.56 M27.42 20.56 C27.42 25.13, 25.13 27.42, 20.56 27.42 M27.42 20.56 C27.42 25.13, 25.13 27.42, 20.56 27.42 M20.56 27.42 C17.76 27.42, 14.96 27.42, 6.85 27.42 M20.56 27.42 C17.14 27.42, 13.71 27.42, 6.85 27.42 M6.85 27.42 C2.28 27.42, 0 25.13, 0 20.56 M6.85 27.42 C2.28 27.42, 0 25.13, 0 20.56 M0 20.56 C0 17.76, 0 14.95, 0 6.85 M0 20.56 C0 16.39, 0 12.22, 0 6.85 M0 6.85 C0 2.28, 2.28 0, 6.85 0 M0 6.85 C0 2.28, 2.28 0, 6.85 0" stroke="#2f9e44" stroke-width="1" fill="none"></path></g><g transform="translate(69.55109240533875 10) rotate(0 98.4375 9.599999999999909)"><text x="98.4375" y="15.45" font-family="Cascadia, Segoe UI Emoji" font-size="16px" fill="#1e1e1e" text-anchor="middle" style="white-space: pre;" direction="ltr" dominant-baseline="alphabetic">level_main_00-01.json</text></g><g stroke-linecap="round" transform="translate(384.3525849632315 99.0099514060521) rotate(0 8.704963273826479 8.704963273826479)"><path d="M4.35 0 C6.23 0, 8.11 0, 13.06 0 C15.96 0, 17.41 1.45, 17.41 4.35 C17.41 6.73, 17.41 9.11, 17.41 13.06 C17.41 15.96, 15.96 17.41, 13.06 17.41 C10.4 17.41, 7.75 17.41, 4.35 17.41 C1.45 17.41, 0 15.96, 0 13.06 C0 9.9, 0 6.73, 0 4.35 C0 1.45, 1.45 0, 4.35 0" stroke="none" stroke-width="0" fill="#e9ecef"></path><path d="M4.35 0 C7.67 0, 10.98 0, 13.06 0 M4.35 0 C6.18 0, 8.01 0, 13.06 0 M13.06 0 C15.96 0, 17.41 1.45, 17.41 4.35 M13.06 0 C15.96 0, 17.41 1.45, 17.41 4.35 M17.41 4.35 C17.41 7.06, 17.41 9.77, 17.41 13.06 M17.41 4.35 C17.41 6.75, 17.41 9.14, 17.41 13.06 M17.41 13.06 C17.41 15.96, 15.96 17.41, 13.06 17.41 M17.41 13.06 C17.41 15.96, 15.96 17.41, 13.06 17.41 M13.06 17.41 C9.73 17.41, 6.4 17.41, 4.35 17.41 M13.06 17.41 C10.83 17.41, 8.61 17.41, 4.35 17.41 M4.35 17.41 C1.45 17.41, 0 15.96, 0 13.06 M4.35 17.41 C1.45 17.41, 0 15.96, 0 13.06 M0 13.06 C0 10.88, 0 8.71, 0 4.35 M0 13.06 C0 9.85, 0 6.65, 0 4.35 M0 4.35 C0 1.45, 1.45 0, 4.35 0 M0 4.35 C0 1.45, 1.45 0, 4.35 0" stroke="#1e1e1e" stroke-width="1" fill="none"></path></g><g stroke-linecap="round" transform="translate(385.0806605615594 151.17762822019586) rotate(0 8.704963273826479 8.704963273826479)"><path d="M4.35 0 C6.28 0, 8.21 0, 13.06 0 M13.06 0 C15.96 0, 17.41 1.45, 17.41 4.35 M17.41 4.35 C17.41 7.66, 17.41 10.96, 17.41 13.06 M17.41 13.06 C17.41 15.96, 15.96 17.41, 13.06 17.41 M13.06 17.41 C11.04 17.41, 9.01 17.41, 4.35 17.41 M4.35 17.41 C1.45 17.41, 0 15.96, 0 13.06 M0 13.06 C0 10.15, 0 7.24, 0 4.35 M0 4.35 C0 1.45, 1.45 0, 4.35 0" stroke="#e03131" stroke-width="1.5" fill="none" stroke-dasharray="8 9"></path></g><g stroke-linecap="round" transform="translate(384.35258496323104 125.0937898131242) rotate(0 8.704963273826479 8.704963273826479)"><path d="M4.35 0 C7.72 0, 11.09 0, 13.06 0 M4.35 0 C7.71 0, 11.07 0, 13.06 0 M13.06 0 C15.96 0, 17.41 1.45, 17.41 4.35 M13.06 0 C15.96 0, 17.41 1.45, 17.41 4.35 M17.41 4.35 C17.41 7.56, 17.41 10.76, 17.41 13.06 M17.41 4.35 C17.41 6.55, 17.41 8.75, 17.41 13.06 M17.41 13.06 C17.41 15.96, 15.96 17.41, 13.06 17.41 M17.41 13.06 C17.41 15.96, 15.96 17.41, 13.06 17.41 M13.06 17.41 C10.86 17.41, 8.66 17.41, 4.35 17.41 M13.06 17.41 C11.14 17.41, 9.23 17.41, 4.35 17.41 M4.35 17.41 C1.45 17.41, 0 15.96, 0 13.06 M4.35 17.41 C1.45 17.41, 0 15.96, 0 13.06 M0 13.06 C0 10.24, 0 7.43, 0 4.35 M0 13.06 C0 10.4, 0 7.74, 0 4.35 M0 4.35 C0 1.45, 1.45 0, 4.35 0 M0 4.35 C0 1.45, 1.45 0, 4.35 0" stroke="#1e1e1e" stroke-width="1" fill="none"></path></g><g stroke-linecap="round" transform="translate(385.0806605615594 177.26146662726796) rotate(0 8.704963273826479 8.704963273826479)"><path d="M4.35 0 C7.08 0, 9.8 0, 13.06 0 M4.35 0 C7.27 0, 10.19 0, 13.06 0 M13.06 0 C15.96 0, 17.41 1.45, 17.41 4.35 M13.06 0 C15.96 0, 17.41 1.45, 17.41 4.35 M17.41 4.35 C17.41 6.56, 17.41 8.76, 17.41 13.06 M17.41 4.35 C17.41 6.93, 17.41 9.52, 17.41 13.06 M17.41 13.06 C17.41 15.96, 15.96 17.41, 13.06 17.41 M17.41 13.06 C17.41 15.96, 15.96 17.41, 13.06 17.41 M13.06 17.41 C10.06 17.41, 7.06 17.41, 4.35 17.41 M13.06 17.41 C9.78 17.41, 6.51 17.41, 4.35 17.41 M4.35 17.41 C1.45 17.41, 0 15.96, 0 13.06 M4.35 17.41 C1.45 17.41, 0 15.96, 0 13.06 M0 13.06 C0 10.33, 0 7.61, 0 4.35 M0 13.06 C0 9.74, 0 6.43, 0 4.35 M0 4.35 C0 1.45, 1.45 0, 4.35 0 M0 4.35 C0 1.45, 1.45 0, 4.35 0" stroke="#2f9e44" stroke-width="1" fill="none"></path></g><g stroke-linecap="round" transform="translate(385.0806605615594 203.34530503434007) rotate(0 8.704963273826479 8.704963273826479)"><path d="M4.35 0 C6.45 0, 8.54 0, 13.06 0 M4.35 0 C6.94 0, 9.52 0, 13.06 0 M13.06 0 C15.96 0, 17.41 1.45, 17.41 4.35 M13.06 0 C15.96 0, 17.41 1.45, 17.41 4.35 M17.41 4.35 C17.41 7.06, 17.41 9.76, 17.41 13.06 M17.41 4.35 C17.41 6.15, 17.41 7.94, 17.41 13.06 M17.41 13.06 C17.41 15.96, 15.96 17.41, 13.06 17.41 M17.41 13.06 C17.41 15.96, 15.96 17.41, 13.06 17.41 M13.06 17.41 C10.37 17.41, 7.69 17.41, 4.35 17.41 M13.06 17.41 C10.69 17.41, 8.33 17.41, 4.35 17.41 M4.35 17.41 C1.45 17.41, 0 15.96, 0 13.06 M4.35 17.41 C1.45 17.41, 0 15.96, 0 13.06 M0 13.06 C0 10.71, 0 8.36, 0 4.35 M0 13.06 C0 9.8, 0 6.55, 0 4.35 M0 4.35 C0 1.45, 1.45 0, 4.35 0 M0 4.35 C0 1.45, 1.45 0, 4.35 0" stroke="#f08c00" stroke-width="1" fill="none"></path></g><g transform="translate(431.68724815993755 101.61907355309631) rotate(0 10.149993896484375 6.095841126782261)"><text x="10.149993896484375" y="9.810494313415118" font-family="Cascadia, Segoe UI Emoji" font-size="10.159735211303683px" fill="#1e1e1e" text-anchor="middle" style="white-space: pre;" direction="ltr" dominant-baseline="alphabetic"></text></g><g transform="translate(431.68724815993755 127.70291196016842) rotate(0 10.149993896484375 6.095841126782261)"><text x="10.149993896484375" y="9.810494313415118" font-family="Cascadia, Segoe UI Emoji" font-size="10.159735211303683px" fill="#1e1e1e" text-anchor="middle" style="white-space: pre;" direction="ltr" dominant-baseline="alphabetic"></text></g><g transform="translate(421.5372542634532 153.78675036724098) rotate(0 20.29998779296875 6.095841126782261)"><text x="20.29998779296875" y="9.810494313415118" font-family="Cascadia, Segoe UI Emoji" font-size="10.159735211303683px" fill="#1e1e1e" text-anchor="middle" style="white-space: pre;" direction="ltr" dominant-baseline="alphabetic"></text></g><g transform="translate(416.462257315211 179.8705887743131) rotate(0 25.374984741210938 6.095841126782261)"><text x="25.374984741210938" y="9.810494313415118" font-family="Cascadia, Segoe UI Emoji" font-size="10.159735211303683px" fill="#1e1e1e" text-anchor="middle" style="white-space: pre;" direction="ltr" dominant-baseline="alphabetic"></text></g><g transform="translate(416.462257315211 205.95442718138565) rotate(0 25.374984741210938 6.095841126782261)"><text x="25.374984741210938" y="9.810494313415118" font-family="Cascadia, Segoe UI Emoji" font-size="10.159735211303683px" fill="#1e1e1e" text-anchor="middle" style="white-space: pre;" direction="ltr" dominant-baseline="alphabetic"></text></g></svg>